<?xml version="1.0" encoding="UTF-8" standalone="no"?>
<!DOCTYPE svg PUBLIC "-//W3C//DTD SVG 1.1//EN" "http://www.w3.org/Graphics/SVG/1.1/DTD/svg11.dtd">
<svg width="100%" height="100%" viewBox="0 0 1914 1981" version="1.1" xmlns="http://www.w3.org/2000/svg" xmlns:xlink="http://www.w3.org/1999/xlink" xml:space="preserve" xmlns:serif="http://www.serif.com/" style="fill-rule:evenodd;clip-rule:evenodd;stroke-linecap:square;stroke-linejoin:round;stroke-miterlimit:1.5;">
    <g transform="matrix(1,0,0,1,-687.88,-386.077)">
        <g id="Artboard1" transform="matrix(0.566447,0,0,0.655344,0,0)">
            <rect x="0" y="0" width="5691.67" height="4266.67" style="fill:none;"/>
            <g>
                <g transform="matrix(2.11806,0,0,1.68877,-2913.17,-1172.57)">
                    <path d="M3431.96,1389C2978.14,1397.39 2522.89,1415.85 2065.95,1446.05L2332.39,2813.37L3212.09,2791.06L3299.05,2441.06L3431.96,1389Z" style="fill:rgb(224,123,129);"/>
                </g>
                <g transform="matrix(1.76539,0,0,1.52592,-1992.92,-730.337)">
                    <path d="M2290.77,2801.48C2288.78,2796.77 2280.01,2775.93 2279.32,2773.38C2266.6,2726 2221.34,2498.19 2213.66,2462.93C2200.5,2402.51 2195.95,2340.7 2182.26,2280.47C2146.1,2121.38 2109.97,1961.9 2070.44,1803.79C2042.16,1690.67 2027.87,1575.03 1997.85,1462.45C1986.44,1419.67 1979.9,1376 1976.84,1332.5C1976.45,1326.87 1973.33,1302.07 1972.82,1297.95C1972.94,1293.1 1971.1,1288.22 1967.31,1284.61C1963.54,1281.01 1959.6,1279.99 1956.36,1279.74C1954.27,1279.58 1936.43,1281.26 1937.21,1298.94C1937.41,1303.44 1940.92,1328.69 1941.36,1334.99C1944.58,1380.73 1951.49,1426.64 1963.48,1471.62C1993.45,1584.01 2007.7,1699.47 2035.94,1812.41C2075.4,1970.28 2111.47,2129.51 2147.58,2288.36C2161.24,2348.47 2165.76,2410.19 2178.9,2470.5C2186.63,2505.95 2232.18,2734.97 2244.97,2782.6C2246.1,2786.81 2254.63,2813.62 2263.32,2824.55C2269.11,2831.84 2276.05,2834.79 2281.76,2835.11C2291.56,2835.64 2299.96,2828.12 2300.5,2818.32C2300.89,2811.06 2296.87,2804.57 2290.77,2801.48ZM1943.52,1311.03C1947.89,1314.83 1952.37,1315.52 1956.14,1315.23C1951.68,1315.51 1947.13,1314.12 1943.52,1311.03ZM1959.55,1314.69L1959.46,1314.71L1959.52,1314.69L1959.55,1314.69ZM1965.8,1311.65C1963.99,1313.02 1961.98,1314.01 1959.88,1314.6C1961.91,1314.04 1963.91,1313.11 1965.8,1311.65Z"/>
                </g>
                <g transform="matrix(1.76539,0,0,1.52592,-1992.92,-730.337)">
                    <path d="M3314.89,2795.88C3311.51,2795.76 3258.93,2793.91 3241.04,2793.91C3195.7,2793.91 3147.68,2801.7 3102.12,2796.01C3024.03,2786.25 2928.3,2792.77 2850.41,2803.89C2755.06,2817.51 2647.49,2801.75 2551.07,2801.75C2488.54,2801.75 2425.29,2803.71 2362.89,2803.71C2351.38,2803.71 2336.38,2807.13 2321.27,2808.43C2311.11,2809.3 2300.69,2809.63 2292.63,2803.62C2284.76,2797.76 2273.6,2799.39 2267.74,2807.26C2261.88,2815.13 2263.51,2826.28 2271.38,2832.15C2283.79,2841.39 2298.73,2844.55 2314.27,2844.38C2331.57,2844.18 2349.63,2839.28 2362.89,2839.28C2425.29,2839.28 2488.54,2837.32 2551.07,2837.32C2649.12,2837.32 2758.49,2852.95 2855.45,2839.1C2930.41,2828.39 3022.54,2821.91 3097.7,2831.3C3144.72,2837.18 3194.27,2829.48 3241.04,2829.48C3259.56,2829.48 3306.41,2831.48 3315.19,2831.45C3324.16,2831.42 3328.36,2826.91 3328.87,2826.42C3333.1,2822.36 3334.36,2817.79 3334.34,2813.5C3334.32,2809.67 3333.27,2805.35 3329.43,2801.32C3325.53,2797.22 3320.13,2795.39 3314.89,2795.88ZM3298.78,2814.12C3298.87,2817.83 3299.98,2821.96 3303.66,2825.83C3300.53,2822.53 3298.9,2818.34 3298.78,2814.12ZM3298.77,2813.67L3298.77,2813.84L3298.77,2813.37L3298.77,2813.67ZM3302.92,2802.15C3299.92,2805.64 3298.87,2809.42 3298.78,2813.04C3298.89,2809.15 3300.28,2805.29 3302.92,2802.15Z"/>
                </g>
                <g transform="matrix(1.76539,0,0,1.52592,-1992.92,-730.337)">
                    <path d="M3579.79,1255.87C3572.45,1285.06 3568.34,1323.31 3560.93,1352.95C3538.49,1442.74 3525.45,1527.96 3513.49,1623.6C3493.24,1785.68 3479.97,1951.41 3468.32,2114.58C3460.71,2221.1 3428.01,2325.49 3417.4,2431.62C3408.42,2521.42 3370.5,2606 3352.98,2692.52C3347.53,2719.42 3344.37,2732.26 3332.41,2757.2C3328.81,2764.72 3321.19,2787.1 3313.81,2795.99C3307.54,2803.55 3308.59,2814.77 3316.14,2821.04C3323.69,2827.3 3334.91,2826.26 3341.18,2818.71C3350.05,2808.02 3360.16,2781.61 3364.49,2772.58C3377.99,2744.41 3381.69,2729.95 3387.84,2699.58C3405.6,2611.92 3443.69,2526.14 3452.79,2435.16C3463.44,2328.7 3496.17,2223.97 3503.8,2117.11C3515.41,1954.57 3528.61,1789.47 3548.79,1628.01C3560.56,1533.86 3573.34,1449.96 3595.44,1361.58C3603.08,1331.03 3607.16,1291.27 3614.97,1261.87L3615.05,1261.58L3615.06,1261.53L3615.07,1261.51C3618.64,1248.06 3619.35,1242.86 3619.35,1242.29C3619.36,1237.68 3617.85,1234.88 3617,1233.41C3613.4,1227.1 3608.18,1224.92 3602.99,1224.5C3599.49,1224.22 3595.03,1224.7 3590.48,1228.31C3590.01,1228.69 3586.26,1231.52 3584.18,1237.97C3582.97,1241.74 3580.69,1251.17 3579.79,1255.87Z"/>
                </g>
                <g transform="matrix(0.951328,-0.176552,0.389376,1.5675,-928.449,-398.807)">
                    <path d="M2457.15,1416.72C2600.47,1416.72 2678.14,1718.77 2678.14,2084.66C2678.14,2450.54 2629.78,2722.33 2486.45,2722.33C2407.41,2722.33 2347.81,2668.21 2323.96,2529.3C2304.56,2416.33 2313.98,2236.34 2313.98,2072.24C2313.98,1706.36 2313.83,1416.72 2457.15,1416.72Z" style="fill:rgb(191,55,64);stroke:rgb(191,55,64);stroke-width:42.4px;"/>
                </g>
                <g transform="matrix(1.76539,0,0,1.52592,-1992.92,-730.337)">
                    <path d="M2370.14,1473.73C2368.49,1470.39 2360.28,1447.7 2354.74,1437.24C2341.2,1411.64 2325.55,1385.53 2306.98,1367.32C2284.99,1345.74 2259.02,1334.56 2228.19,1342.27C2222.91,1343.59 2216.48,1347.2 2210.29,1352.77C2200.14,1361.91 2189.75,1376.58 2185.87,1384.35C2164.17,1427.75 2155.22,1454.73 2153.62,1478.85C2151.31,1513.89 2165.34,1543.17 2182.47,1611.7C2202.15,1690.4 2208.69,1769.31 2221.07,1849.77C2235.45,1943.2 2264.98,2033.32 2280.51,2126.53C2296.84,2224.5 2311.03,2325.92 2338.31,2421.43C2355.13,2480.3 2370.47,2603.86 2414.58,2681.78C2434.35,2716.71 2459.95,2742.8 2492.44,2753.37C2514.65,2760.6 2540.28,2760.83 2569.98,2750.93C2594.95,2742.61 2613.2,2717.47 2623.59,2682.72C2644.27,2613.48 2635.95,2505.43 2622.2,2464.18C2599.45,2395.92 2592.82,2314.42 2584.05,2244.31C2573.2,2157.45 2546.09,2065.59 2522.05,1981.48C2494.7,1885.76 2495.94,1784.27 2464.47,1689.85C2451.09,1649.73 2389.78,1513.39 2370.14,1473.73ZM2237.48,1376.62C2255.07,1372.5 2269.47,1380.34 2282.07,1392.71C2298.25,1408.58 2311.5,1431.58 2323.3,1453.88C2328.7,1464.09 2336.65,1486.25 2338.26,1489.51C2357.49,1528.35 2417.63,1661.81 2430.72,1701.1C2462.03,1795.03 2460.65,1896.03 2487.85,1991.25C2511.4,2073.66 2538.12,2163.62 2548.76,2248.72C2557.8,2321.03 2564.99,2405.03 2588.45,2475.43C2599.12,2507.44 2605.83,2583.89 2595.81,2644.55C2592.65,2663.73 2587.84,2681.29 2580.62,2695.03C2575.01,2705.71 2568.22,2714.02 2558.73,2717.18C2537.55,2724.25 2519.29,2724.7 2503.44,2719.55C2478.85,2711.54 2460.5,2690.7 2445.53,2664.25C2402.78,2588.74 2388.81,2468.71 2372.51,2411.66C2345.59,2317.43 2331.71,2217.34 2315.6,2120.68C2300.09,2027.61 2270.58,1937.64 2256.23,1844.36C2243.68,1762.8 2236.92,1682.85 2216.98,1603.08C2191.14,1499.7 2170.12,1495.38 2217.68,1400.25C2219.93,1395.76 2225.51,1387.91 2231.36,1381.86C2233.3,1379.85 2236.73,1377.2 2237.48,1376.62Z"/>
                </g>
                <g transform="matrix(0.971458,-0.0474748,0.104703,1.60067,344.975,-839.899)">
                    <path d="M2482.08,1424.48C2554.79,1424.48 2648.14,1531.25 2683.88,1690.15C2718.59,1844.47 2696.75,2048.29 2696.75,2228.55C2696.75,2369.15 2690.38,2497.51 2670.07,2574.07C2637.52,2696.74 2574.7,2722.33 2486.45,2722.33C2443.71,2722.33 2379.32,2720.96 2349.05,2685.98C2323.01,2655.89 2328.71,2597.23 2319.96,2536.26C2304.77,2430.38 2331.38,2266.38 2332.84,2100.93C2336.06,1735.05 2338.75,1424.48 2482.08,1424.48Z" style="fill:rgb(191,55,64);stroke:rgb(191,55,64);stroke-width:42.4px;"/>
                </g>
                <g transform="matrix(0.969887,0.0673234,-0.148478,1.59808,1630.7,-1083.89)">
                    <path d="M2486.45,1396.45C2566.3,1396.45 2648.73,1496.78 2667.32,1648.89C2682.09,1769.83 2662.2,1924.96 2640.41,2085.55C2601.93,2369.24 2587.06,2526.78 2525.03,2655.15C2513.84,2678.3 2490.65,2672.7 2475.98,2694.52C2442.86,2743.79 2305.39,2716.24 2254.91,2644.9C2223.51,2600.52 2251.38,2513.89 2242.29,2439.57C2230.72,2344.92 2298.12,2196.9 2298.12,2076.84C2298.12,1828 2329.43,1594.27 2351.65,1472.39C2357.5,1440.29 2440.6,1396.45 2486.45,1396.45Z" style="fill:rgb(191,55,64);stroke:rgb(191,55,64);stroke-width:42.4px;"/>
                </g>
                <g transform="matrix(0.108777,1.13146,-2.71254,0.194829,8185.85,-2145.64)">
                    <path d="M2494.77,1534.99C2540.07,1534.99 2525.06,1443.77 2557.58,1460.91C2566.91,1465.83 2614.52,1455.11 2632.17,1479.82C2643.05,1495.05 2650,1516.67 2654.7,1539.93C2662.64,1579.19 2568.6,2117.28 2560.22,2574.74C2559.78,2598.52 2564.75,2612.88 2550.08,2634.7C2516.96,2683.97 2457.94,2629.48 2407.46,2558.14C2376.05,2513.76 2298.18,2542.1 2289.09,2467.78C2277.52,2373.13 2298.12,2196.9 2298.12,2076.84C2298.12,1828 2311.49,1746.95 2333.7,1625.07C2339.56,1592.97 2448.92,1534.99 2494.77,1534.99Z" style="fill:rgb(191,55,64);stroke:rgb(191,55,64);stroke-width:29.38px;"/>
                </g>
                <g transform="matrix(1.73945,0.260623,-0.301525,1.50349,-568.961,-1329.5)">
                    <path d="M2237.48,1376.62C2254.79,1372.58 2268.15,1380.92 2280.19,1393.33C2296.31,1409.93 2309.98,1433.52 2324.12,1455.26C2328.21,1461.55 2339.47,1478.9 2342.9,1486.96C2360.51,1528.35 2417.57,1661.64 2430.72,1701.1C2462.03,1795.03 2460.65,1896.03 2487.85,1991.25C2511.4,2073.66 2538.12,2163.62 2548.76,2248.72C2557.72,2320.39 2557.79,2306.86 2568.69,2370.7L2571.69,2388.23L2606.75,2382.24L2603.76,2364.71C2592.99,2301.7 2592.9,2315.05 2584.05,2244.31C2573.2,2157.45 2546.09,2065.59 2522.05,1981.48C2494.7,1885.76 2495.94,1784.27 2464.47,1689.85C2451.15,1649.9 2393.46,1514.94 2375.63,1473.03C2371.63,1463.62 2358.72,1443.22 2353.93,1435.87C2338.52,1412.16 2323.29,1386.65 2305.71,1368.55C2284.2,1346.4 2259.28,1334.5 2228.19,1342.27C2222.91,1343.59 2216.48,1347.2 2210.29,1352.77C2200.14,1361.91 2189.75,1376.58 2185.87,1384.35C2164.17,1427.75 2155.22,1454.73 2153.62,1478.85C2151.31,1513.89 2165.34,1543.17 2182.47,1611.7C2202.15,1690.4 2208.69,1769.31 2221.07,1849.77C2235.45,1943.2 2264.98,2033.32 2280.51,2126.53C2296.84,2224.5 2311.03,2325.92 2338.31,2421.43C2355.13,2480.3 2370.47,2603.86 2414.58,2681.78C2434.35,2716.71 2459.95,2742.8 2492.44,2753.37C2514.65,2760.6 2540.28,2760.83 2569.98,2750.93C2595.03,2742.58 2612.51,2714.85 2621.56,2677.95C2639.24,2605.83 2628.91,2498.95 2628.91,2498.95L2627.17,2481.26L2591.77,2484.74L2593.51,2502.44C2593.51,2502.44 2603.51,2602.18 2587.01,2669.48C2583.84,2682.41 2579.73,2694.07 2574.08,2703.16C2569.94,2709.81 2565.15,2715.05 2558.73,2717.18C2537.55,2724.25 2519.29,2724.7 2503.44,2719.55C2478.85,2711.54 2460.5,2690.7 2445.53,2664.25C2402.78,2588.74 2388.81,2468.71 2372.51,2411.66C2345.59,2317.43 2331.71,2217.34 2315.6,2120.68C2300.09,2027.61 2270.58,1937.64 2256.23,1844.36C2243.68,1762.8 2236.92,1682.85 2216.98,1603.08C2191.14,1499.7 2170.12,1495.38 2217.68,1400.25C2219.93,1395.76 2225.51,1387.91 2231.36,1381.86C2233.3,1379.85 2236.73,1377.2 2237.48,1376.62Z"/>
                </g>
                <g transform="matrix(1.65567,0.529546,-0.612651,1.43108,994.32,-1825.9)">
                    <path d="M2190.72,1645.06C2191.39,1649.72 2193.49,1661.74 2199.65,1691.57L2203.24,1708.99L2238.07,1701.8L2234.48,1684.38C2228.64,1656.08 2226.35,1643.13 2225.98,1641.02C2225.87,1639.75 2225.66,1638.24 2225.27,1636.82L2225.33,1636.85C2225.33,1636.85 2222.91,1628.18 2216.12,1601.01L2211.8,1583.75L2177.3,1592.38L2181.61,1609.63C2186.95,1630.98 2189.52,1640.73 2190.72,1645.06Z"/>
                </g>
                <g transform="matrix(1.65567,0.529546,-0.612651,1.43108,994.32,-1825.9)">
                    <path d="M2322.63,1438.84C2324.25,1442.5 2337.84,1473.38 2343.88,1486.61C2373.33,1551.04 2417.59,1661.72 2430.72,1701.1C2462.03,1795.03 2460.65,1896.03 2487.85,1991.25C2511.4,2073.66 2538.12,2163.62 2548.76,2248.72C2557.8,2321.03 2564.99,2405.03 2588.45,2475.43C2599.12,2507.44 2605.83,2583.89 2595.81,2644.55C2592.65,2663.73 2587.84,2681.29 2580.62,2695.03C2575.01,2705.71 2568.22,2714.02 2558.73,2717.18C2537.55,2724.25 2519.29,2724.7 2503.44,2719.55C2478.85,2711.54 2460.5,2690.7 2445.53,2664.25C2402.78,2588.74 2388.81,2468.71 2372.51,2411.66C2345.59,2317.43 2331.71,2217.34 2315.6,2120.68C2300.08,2027.6 2260.83,1846.95 2246.47,1753.65L2243.77,1736.07L2208.61,1741.48L2211.32,1759.06C2225.69,1852.47 2264.98,2033.33 2280.51,2126.53C2296.84,2224.5 2311.03,2325.92 2338.31,2421.43C2355.13,2480.3 2370.47,2603.86 2414.58,2681.78C2434.35,2716.71 2459.95,2742.8 2492.44,2753.37C2514.65,2760.6 2540.28,2760.83 2569.98,2750.93C2594.95,2742.61 2613.2,2717.47 2623.59,2682.72C2644.27,2613.48 2635.95,2505.43 2622.2,2464.18C2599.45,2395.92 2592.82,2314.42 2584.05,2244.31C2573.2,2157.45 2546.09,2065.59 2522.05,1981.48C2494.7,1885.76 2495.94,1784.27 2464.47,1689.85C2451.12,1649.82 2406.16,1537.32 2376.24,1471.83C2368.39,1454.65 2353.18,1420.02 2351.2,1417.59C2332.56,1394.74 2317.74,1373.62 2301.38,1359.66C2281.37,1342.59 2259.28,1334.5 2228.19,1342.27C2220.77,1344.12 2207.45,1350.18 2196.61,1357.15C2187.98,1362.69 2181.02,1369.06 2177.83,1374.05C2169.19,1387.58 2161.93,1394.12 2156.98,1400.25C2151.61,1406.9 2148.02,1413.31 2146.25,1422.43C2143.18,1438.29 2147.62,1466.49 2165.93,1540.62L2170.19,1557.89L2204.72,1549.36L2200.46,1532.09C2184.47,1467.33 2178.48,1443.06 2181.17,1429.21C2181.95,1425.17 2184.27,1422.94 2186.99,1419.84C2192.44,1413.63 2199.53,1406.17 2207.81,1393.19C2209.09,1391.19 2212.39,1389.28 2215.84,1387.07C2223.09,1382.41 2231.85,1378.02 2236.82,1376.78C2258.62,1371.33 2272.58,1380.02 2286.23,1394.3C2297.85,1406.47 2309.12,1422.18 2322.63,1438.84Z"/>
                </g>
                <g transform="matrix(1.76539,0,0,1.52592,-1992.89,-729.134)">
                    <path d="M3687.03,1139.74C3687.15,1141.49 3686.95,1143.46 3686.74,1145.56C3686.1,1151.77 3684.27,1158.69 3681.77,1165.72C3676.95,1179.3 3669.62,1193.17 3662.28,1203.2C3659.14,1207.48 3656.41,1211.14 3653.75,1212.82C3652.21,1213.09 3646.07,1214.13 3641.39,1214.61C3622.34,1216.54 3595.35,1217.36 3595.35,1217.36L3577.57,1217.91L3578.67,1253.47L3596.45,1252.92C3596.45,1252.92 3624.9,1252.03 3644.97,1250C3656.32,1248.85 3665.5,1246.76 3668.97,1245.02C3674.08,1242.47 3680.15,1237.52 3686.13,1230.4C3696.76,1217.77 3708.23,1197.48 3715.29,1177.63C3723.22,1155.31 3724.52,1133.37 3718.03,1120.43C3716.39,1117.15 3713.6,1113.66 3709.02,1110.67C3704.61,1107.8 3697.16,1104.86 3686.92,1102.61C3643.6,1093.09 3536.24,1090.49 3438.63,1091.27L3420.84,1091.41L3421.13,1126.98L3438.91,1126.84C3522.02,1126.17 3612.4,1127.78 3661.94,1134.41C3671.94,1135.76 3682.34,1138.44 3687.03,1139.74Z"/>
                </g>
                <g transform="matrix(1.76539,0,0,1.52592,-1992.89,-729.134)">
                    <path d="M3388.15,1092.3C3295.39,1093.04 3305.79,1090.16 3291.17,1093.15L3273.75,1096.71L3280.88,1131.56L3298.3,1128C3311.89,1125.21 3302.23,1128.56 3388.44,1127.87L3406.22,1127.72L3405.94,1092.16L3388.15,1092.3Z"/>
                </g>
                <g transform="matrix(1.76539,0,0,1.52592,-1992.89,-729.134)">
                    <path d="M3212.12,1093.34C3113.77,1097.69 3012.33,1089.81 2894.16,1104.58C2661.98,1133.6 2423.37,1118.72 2191.18,1147.75C2139.86,1154.16 2057.07,1156.87 1983.42,1165.82C1931.96,1172.08 1884.83,1181.6 1854.5,1196.76C1842.71,1202.66 1834.87,1212.92 1830.24,1225.43C1824.97,1239.64 1824.11,1257 1824.11,1270.23C1824.11,1294.6 1831.84,1309.96 1842.6,1319.79C1853.39,1329.64 1868.06,1334.25 1884.56,1334.93C1909.5,1335.94 1939.25,1327.44 1958.4,1325.19L1976.06,1323.12L1971.92,1287.8L1954.26,1289.87C1936.54,1291.94 1909.08,1300.33 1886.01,1299.39C1878.51,1299.08 1871.5,1298.01 1866.59,1293.52C1861.64,1289.01 1859.68,1281.42 1859.68,1270.23C1859.68,1262.02 1859.84,1251.64 1862.21,1242.29C1863.63,1236.67 1865.41,1231.08 1870.4,1228.58C1897.97,1214.8 1940.95,1206.82 1987.71,1201.13C2061.41,1192.17 2144.24,1189.46 2195.59,1183.04C2427.78,1154.02 2666.39,1168.9 2898.58,1139.88C3015.68,1125.24 3116.23,1133.19 3213.69,1128.87L3231.46,1128.09L3229.88,1092.55L3212.12,1093.34Z"/>
                </g>
                <g transform="matrix(1.76539,0,0,1.52592,-1992.92,-730.337)">
                    <path d="M1984.21,1190.78C1985.34,1189.4 1987.31,1187.06 1988.93,1185.32C1998.23,1175.34 2012.12,1162.3 2015.12,1159.14C2032.13,1141.24 2049.92,1116.98 2065.31,1100.82C2069.64,1100.05 2079.73,1098.31 2089.63,1097.12C2162.77,1088.32 2337.97,1076.12 2361.36,1074.17C2638.51,1051.08 2913.14,1029.02 3192.36,1029.02L3447.25,1029.02C3447.93,1029.02 3467.44,1030.58 3485.73,1034.51C3491.52,1035.76 3497.19,1037.24 3502.01,1039.04C3504.78,1040.08 3507.27,1040.9 3508.67,1042.31C3524.79,1058.42 3542.1,1101.38 3551.11,1116.81C3556.06,1125.29 3566.96,1128.15 3575.44,1123.19C3583.91,1118.24 3586.77,1107.34 3581.82,1098.87C3571.86,1081.82 3551.63,1034.97 3533.82,1017.15C3528.01,1011.34 3517.06,1005.98 3504.02,1002.37C3479.85,995.686 3448.2,993.446 3447.25,993.446L3192.36,993.446C2912.14,993.446 2636.54,1015.55 2358.41,1038.73C2334.91,1040.69 2158.87,1052.96 2085.38,1061.81C2069.14,1063.76 2057.46,1065.73 2052.54,1067.26C2047.44,1068.85 2044.53,1071.21 2043.09,1072.65C2026.89,1088.86 2007.65,1115.37 1989.33,1134.64C1984.59,1139.63 1955.79,1167.46 1951.8,1175.36C1947.01,1184.82 1950.35,1191.96 1953.06,1195.63C1958.88,1203.53 1970.03,1205.21 1977.93,1199.38C1980.97,1197.14 1983.09,1194.11 1984.21,1190.78ZM1982.22,1175.29C1984.66,1178.98 1985.54,1183.29 1984.99,1187.41C1986.19,1182.05 1984.03,1177.89 1982.22,1175.29Z"/>
                </g>
                <g transform="matrix(1.76539,0,0,1.52592,-1992.92,-730.337)">
                    <path d="M3001.98,1012.3C3002.38,1016.21 3004.09,1020.02 3007.08,1023.02C3014.03,1029.96 3025.3,1029.96 3032.24,1023.02C3032.4,1022.86 3038.78,1017.51 3037.11,1006.84C3036.39,1002.26 3032.39,979.241 3032.39,971.296C3032.39,958.394 3029.54,928.733 3027.85,915.137C3024.67,889.63 3001.25,873.099 2965.68,867.488C2902.93,857.588 2800.52,877.913 2784.68,880.879C2741.91,888.883 2672.31,876.298 2623.56,884.211C2599.05,888.189 2579.2,897.208 2566.91,912.697C2558.17,923.717 2552.82,938.117 2552.9,957.2C2552.92,960.113 2554.76,1038.36 2555.48,1042.1C2557.34,1051.74 2566.67,1058.06 2576.31,1056.2C2585.95,1054.35 2592.27,1045.02 2590.41,1035.38C2589.75,1031.92 2588.48,959.727 2588.47,957.039C2588.43,947.585 2590.45,940.261 2594.78,934.802C2602.1,925.569 2614.65,921.692 2629.26,919.321C2678.27,911.366 2748.23,923.887 2791.22,915.841C2806.01,913.073 2901.56,893.381 2960.14,902.622C2970.42,904.244 2979.4,906.65 2985.94,910.781C2989.42,912.974 2992.07,915.628 2992.55,919.538C2994.12,932.07 2996.82,959.403 2996.82,971.296C2996.82,980.459 3001.97,1012.33 3001.97,1012.33L3001.98,1012.3Z"/>
                </g>
                <g transform="matrix(1.76539,0,0,1.52592,-1992.92,-730.337)">
                    <ellipse cx="3305.86" cy="1914.16" rx="8.274" ry="3.654" style="fill:rgb(191,55,64);"/>
                </g>
                <g transform="matrix(1.76539,0,0,1.52592,-1992.92,-730.337)">
                    <path d="M1959.75,1325.72C2002.98,1319.65 2122.87,1315.29 2145.6,1313.91C2289.67,1305.14 2419.54,1293.85 2543.55,1287.95C2912.2,1270.39 3327.71,1275.26 3598.01,1253.46C3607.79,1252.67 3615.1,1244.09 3614.31,1234.3C3613.52,1224.52 3604.93,1217.22 3595.15,1218.01C3325.15,1239.78 2910.1,1234.88 2541.85,1252.42C2417.7,1258.33 2287.68,1269.63 2143.44,1278.41C2120.37,1279.81 1998.68,1284.34 1954.8,1290.5C1945.08,1291.86 1938.3,1300.86 1939.66,1310.58C1941.03,1320.3 1950.03,1327.09 1959.75,1325.72Z"/>
                </g>
            </g>
        </g>
    </g>
</svg>
